<svg width="40" height="40" viewBox="0 0 40 40" fill="none" xmlns="http://www.w3.org/2000/svg">
<path d="M7.49968 20.0001C9.80086 20.0001 11.6663 18.1346 11.6663 15.8334C11.6663 13.5322 9.80086 11.6667 7.49968 11.6667C5.19849 11.6667 3.33301 13.5322 3.33301 15.8334C3.33301 18.1346 5.19849 20.0001 7.49968 20.0001Z" fill="#FBFBFB"/>
<path d="M14.9997 13.3333C17.3009 13.3333 19.1663 11.4679 19.1663 9.16667C19.1663 6.86548 17.3009 5 14.9997 5C12.6985 5 10.833 6.86548 10.833 9.16667C10.833 11.4679 12.6985 13.3333 14.9997 13.3333Z" fill="#FBFBFB"/>
<path d="M24.9997 13.3333C27.3009 13.3333 29.1663 11.4679 29.1663 9.16667C29.1663 6.86548 27.3009 5 24.9997 5C22.6985 5 20.833 6.86548 20.833 9.16667C20.833 11.4679 22.6985 13.3333 24.9997 13.3333Z" fill="#FBFBFB"/>
<path d="M32.4997 20.0001C34.8009 20.0001 36.6663 18.1346 36.6663 15.8334C36.6663 13.5322 34.8009 11.6667 32.4997 11.6667C30.1985 11.6667 28.333 13.5322 28.333 15.8334C28.333 18.1346 30.1985 20.0001 32.4997 20.0001Z" fill="#FBFBFB"/>
<path d="M28.9004 24.7667C27.4504 23.0667 26.2337 21.6167 24.7671 19.9167C24.0004 19.0167 23.0171 18.1167 21.8504 17.7167C21.6671 17.65 21.4837 17.6 21.3004 17.5667C20.8837 17.5 20.4337 17.5 20.0004 17.5C19.5671 17.5 19.1171 17.5 18.6837 17.5833C18.5004 17.6167 18.3171 17.6667 18.1337 17.7333C16.9671 18.1333 16.0004 19.0333 15.2171 19.9333C13.7671 21.6333 12.5504 23.0833 11.0837 24.7833C8.9004 26.9667 6.21707 29.3833 6.71707 32.7667C7.2004 34.4667 8.41707 36.15 10.6004 36.6333C11.8171 36.8833 15.7004 35.9 19.8337 35.9H20.1337C24.2671 35.9 28.1504 36.8667 29.3671 36.6333C31.5504 36.15 32.7671 34.45 33.2504 32.7667C33.7671 29.3667 31.0837 26.95 28.9004 24.7667Z" fill="#FBFBFB"/>
</svg>
