<svg width="40" height="40" viewBox="0 0 40 40" fill="none" xmlns="http://www.w3.org/2000/svg">
<g clip-path="url(#clip0_136_744)">
<path fill-rule="evenodd" clip-rule="evenodd" d="M25.7141 2.78052C26.4349 2.78029 27.1292 3.05147 27.6577 3.53969C28.1863 4.02792 28.51 4.6971 28.5641 5.4131L28.5712 5.62655V28.3948C28.5715 29.1129 28.2992 29.8044 27.8091 30.3309C27.319 30.8574 26.6472 31.1799 25.9284 31.2338L25.7141 31.2409H8.57124C7.85042 31.2411 7.15615 30.9699 6.6276 30.4817C6.09906 29.9935 5.7753 29.3243 5.72124 28.6083L5.7141 28.3948V26.9718C5.34998 26.9714 4.99977 26.8325 4.735 26.5836C4.47023 26.3346 4.31091 25.9943 4.28957 25.6322C4.26823 25.2701 4.38649 24.9136 4.62019 24.6355C4.85389 24.3573 5.18539 24.1786 5.54696 24.1357L5.7141 24.1258V21.2797C5.34998 21.2793 4.99977 21.1405 4.735 20.8915C4.47023 20.6425 4.31091 20.3022 4.28957 19.9401C4.26823 19.5781 4.38649 19.2215 4.62019 18.9434C4.85389 18.6653 5.18539 18.4865 5.54696 18.4437L5.7141 18.4337V15.5877C5.34998 15.5873 4.99977 15.4484 4.735 15.1994C4.47023 14.9504 4.31091 14.6101 4.28957 14.2481C4.26823 13.886 4.38649 13.5295 4.62019 13.2513C4.85389 12.9732 5.18539 12.7944 5.54696 12.7516L5.7141 12.7416V9.89561C5.34998 9.8952 4.99977 9.75632 4.735 9.50734C4.47023 9.25835 4.31091 8.91806 4.28957 8.55599C4.26823 8.19391 4.38649 7.83738 4.62019 7.55925C4.85389 7.28112 5.18539 7.10237 5.54696 7.05953L5.7141 7.04957V5.62655C5.71387 4.90853 5.98611 4.21696 6.47624 3.69047C6.96637 3.16398 7.63816 2.84148 8.35696 2.78763L8.57124 2.78052H25.7141ZM25.7141 5.62655H8.57124V28.3948H25.7141V5.62655ZM22.1427 8.47259C22.6754 8.47261 23.1889 8.67027 23.5833 9.02702C23.9776 9.38377 24.2244 9.87403 24.2755 10.4022L24.2855 10.6071V13.4532C24.2855 13.9838 24.0871 14.4954 23.7289 14.8882C23.3708 15.2809 22.8786 15.5268 22.3484 15.5777L22.1427 15.5877H12.1427C11.61 15.5877 11.0964 15.39 10.7021 15.0332C10.3077 14.6765 10.061 14.1862 10.0098 13.6581L9.99981 13.4532V10.6071C9.99984 10.0765 10.1983 9.56491 10.5564 9.17212C10.9146 8.77933 11.4067 8.53349 11.937 8.48255L12.1427 8.47259H22.1427ZM21.4284 11.3186H12.857V12.7416H21.4284V11.3186Z" fill="#8E9AA6"/>
</g>
<defs>
<clipPath id="clip0_136_744">
<rect width="40" height="40" fill="white"/>
</clipPath>
</defs>
</svg>
