<svg width="30" height="30" viewBox="0 0 30 30" fill="none" xmlns="http://www.w3.org/2000/svg">
<g clip-path="url(#clip0_136_748)">
<path d="M1.89946 9.02265L-0.00623703 10.9284L4.20714 15.1268L8.97138 10.3775L19.0507 20.4568L14.3014 25.2211L18.4999 29.4345L20.4056 27.5288L22.7877 29.896L25.6462 27.0523C25.7455 27.1417 25.8447 27.2459 25.944 27.365C26.0433 27.4841 26.1524 27.5933 26.2715 27.6925C26.3907 27.7918 26.5147 27.8811 26.6438 27.9605C26.7728 28.0399 26.9167 28.0796 27.0755 28.0796C27.3336 28.0796 27.5569 27.9853 27.7455 27.7968C27.9341 27.6082 28.0284 27.3848 28.0284 27.1268C28.0284 26.9779 27.9936 26.8389 27.9241 26.7099C27.8547 26.5809 27.7653 26.4568 27.6562 26.3377C27.547 26.2186 27.4328 26.1094 27.3137 26.0102C27.1946 25.9109 27.0904 25.8067 27.0011 25.6975L29.8447 22.839L27.4775 20.4568L29.3832 18.5511L25.1698 14.3527L20.4056 19.102L10.3262 9.02265L15.0756 4.25841L10.8771 0.0450322L8.97138 1.95073L6.58926 -0.416504L3.73072 2.42715C3.63146 2.33782 3.53221 2.23361 3.43295 2.1145C3.3337 1.99539 3.22452 1.88621 3.10541 1.78696C2.9863 1.6877 2.86223 1.59837 2.7332 1.51897C2.60417 1.43957 2.46025 1.39986 2.30144 1.39986C2.04338 1.39986 1.82006 1.49416 1.63147 1.68274C1.44289 1.87133 1.34859 2.09465 1.34859 2.35271C1.34859 2.5016 1.38334 2.64055 1.45281 2.76958C1.52229 2.89862 1.61162 3.02268 1.7208 3.14179C1.82998 3.2609 1.94412 3.37008 2.06323 3.46933C2.18234 3.56859 2.28655 3.67281 2.37588 3.78199L-0.467773 6.64053L1.89946 9.02265ZM21.7604 26.1739L26.1227 21.8117L27.15 22.839L22.7877 27.2012L21.7604 26.1739ZM16.9813 25.2211L25.1698 17.0325L26.6735 18.5511L18.4999 26.7248L16.9813 25.2211ZM7.61655 3.30556L3.25429 7.66782L2.227 6.64053L6.58926 2.27827L7.61655 3.30556ZM2.70343 10.9284L10.8771 2.7547L12.3957 4.25841L4.20714 12.447L2.70343 10.9284Z" fill="#8E9AA6"/>
</g>
<defs>
<clipPath id="clip0_136_748">
<rect width="30" height="30" fill="white"/>
</clipPath>
</defs>
</svg>
